<?xml version="1.0" standalone="no"?><!DOCTYPE svg PUBLIC "-//W3C//DTD SVG 1.1//EN" "http://www.w3.org/Graphics/SVG/1.1/DTD/svg11.dtd"><svg t="1511160255511" class="icon" style="" viewBox="0 0 1024 1024" version="1.1" xmlns="http://www.w3.org/2000/svg" p-id="2405" xmlns:xlink="http://www.w3.org/1999/xlink" width="23" height="23"><defs><style type="text/css"></style></defs><path d="M418.816 58.112c-96.32 0-186.88 37.504-254.976 105.6-68.096 68.096-105.6 158.656-105.6 254.976 0 96.32 37.504 186.88 105.6 254.976 68.096 68.096 158.656 105.6 254.976 105.6 70.336 0 138.304-20.096 196.608-58.176l8.576-5.568 246.976 246.976c4.608 4.608 12.032 4.608 16.64 0l74.688-74.688c4.608-4.608 4.608-12.032 0-16.64l-246.912-246.912 5.632-8.576c38.208-58.368 58.432-126.464 58.432-196.992 0-96.32-37.504-186.88-105.6-254.976C605.696 95.616 515.136 58.112 418.816 58.112zM660.992 418.688c0 64.704-25.216 125.504-70.912 171.264-45.76 45.76-106.56 70.912-171.264 70.912-64.704 0-125.504-25.216-171.264-70.912C201.856 544.192 176.64 483.392 176.64 418.688c0-64.704 25.216-125.504 70.912-171.264 45.76-45.76 106.56-70.912 171.264-70.912 64.704 0 125.504 25.216 171.264 70.912C635.84 293.184 660.992 353.984 660.992 418.688z" p-id="2406" fill="#515151"></path></svg>